<svg width="97" height="67" viewBox="0 0 97 67" fill="none" xmlns="http://www.w3.org/2000/svg">
<g clip-path="url(#clip0_1196_167191)">
<path d="M93.9043 0.476562H3.09574C1.38896 0.476562 0 1.86552 0 3.57231V63.4234C0 65.1302 1.38896 66.5191 3.09574 66.5191H93.9043C95.611 66.5191 97 65.1302 97 63.4234V3.57231C97 1.86552 95.611 0.476562 93.9043 0.476562ZM3.09574 2.54039H93.9043C94.4718 2.54039 94.9362 3.00475 94.9362 3.57231V7.94556L55.614 46.2152C52.2005 49.4471 46.8572 49.4512 43.4436 46.2048L2.06383 7.92905V3.57231C2.06383 3.00475 2.52819 2.54039 3.09574 2.54039ZM93.9043 64.4553H3.09574C2.52819 64.4553 2.06383 63.9909 2.06383 63.4234V10.7421L42.032 47.7114C44.135 49.7072 46.8304 50.704 49.5299 50.704C52.2314 50.704 54.935 49.7051 57.0443 47.7032L94.9362 10.8246V63.4234C94.9362 63.9909 94.4718 64.4553 93.9043 64.4553Z" fill="#FF8754"/>
<path d="M25.5792 37.744L13.9639 49.3758C13.5615 49.7782 13.5615 50.4324 13.9639 50.8349C14.1662 51.0371 14.4304 51.1362 14.6945 51.1362C14.9587 51.1362 15.2229 51.0351 15.4251 50.8349L27.0404 39.2031C27.4428 38.8007 27.4428 38.1465 27.0404 37.744C26.6379 37.3416 25.9816 37.3395 25.5792 37.744Z" fill="#FF8754"/>
<path d="M74.1535 35.9737C73.7511 35.5713 73.0969 35.5713 72.6944 35.9737C72.292 36.3762 72.292 37.0304 72.6944 37.4328L85.6429 50.3854C85.8451 50.5877 86.1093 50.6868 86.3735 50.6868C86.6377 50.6868 86.9018 50.5856 87.1041 50.3854C87.5065 49.983 87.5065 49.3288 87.1041 48.9263L74.1535 35.9737Z" fill="#FF8754"/>
<path d="M61.9997 25.125C61.7872 27.5949 60.8738 29.9528 59.3668 31.9213C57.8597 33.8897 55.8219 35.3868 53.4929 36.2364C51.1639 37.086 48.6408 37.2528 46.2203 36.7171C43.7997 36.1814 41.5826 34.9656 39.8296 33.2126C38.0766 31.4596 36.8607 29.2424 36.3251 26.8219C35.7894 24.4014 35.9561 21.8782 36.8057 19.5492C37.6553 17.2203 39.1524 15.1824 41.1209 13.6754C43.0893 12.1684 45.4472 11.2549 47.9172 11.0425C48.0485 11.0316 48.1807 11.0468 48.3062 11.087C48.4316 11.1273 48.5479 11.1918 48.6485 11.277C48.749 11.3622 48.8317 11.4664 48.892 11.5836C48.9523 11.7007 48.9889 11.8286 48.9997 11.96C49.0105 12.0913 48.9954 12.2235 48.9551 12.3489C48.9149 12.4744 48.8503 12.5907 48.7651 12.6912C48.6799 12.7917 48.5758 12.8745 48.4586 12.9348C48.3414 12.995 48.2135 13.0316 48.0822 13.0425C45.9917 13.2221 43.996 13.995 42.3298 15.2704C40.6637 16.5458 39.3965 18.2705 38.6774 20.2416C37.9582 22.2127 37.817 24.3483 38.2703 26.3969C38.7236 28.4456 39.7527 30.3221 41.2364 31.8058C42.72 33.2895 44.5966 34.3185 46.6452 34.7719C48.6939 35.2252 50.8294 35.084 52.8005 34.3648C54.7717 33.6456 56.4964 32.3784 57.7717 30.7123C59.0471 29.0462 59.8201 27.0505 59.9997 24.96C60.0216 24.6947 60.1479 24.4491 60.3509 24.277C60.5539 24.105 60.817 24.0206 61.0822 24.0425C61.3474 24.0643 61.5931 24.1907 61.7651 24.3937C61.9372 24.5967 62.0216 24.8597 61.9997 25.125ZM47.9997 17.0425V24.0425C47.9997 24.3077 48.1051 24.562 48.2926 24.7496C48.4801 24.9371 48.7345 25.0425 48.9997 25.0425H55.9997C56.2649 25.0425 56.5193 24.9371 56.7068 24.7496C56.8943 24.562 56.9997 24.3077 56.9997 24.0425C56.9997 23.7772 56.8943 23.5229 56.7068 23.3354C56.5193 23.1478 56.2649 23.0425 55.9997 23.0425H49.9997V17.0425C49.9997 16.7772 49.8943 16.5229 49.7068 16.3354C49.5193 16.1478 49.2649 16.0425 48.9997 16.0425C48.7345 16.0425 48.4801 16.1478 48.2926 16.3354C48.1051 16.5229 47.9997 16.7772 47.9997 17.0425ZM52.9997 14.0425C53.2964 14.0425 53.5864 13.9545 53.8331 13.7897C54.0797 13.6248 54.272 13.3906 54.3855 13.1165C54.499 12.8424 54.5288 12.5408 54.4709 12.2498C54.413 11.9589 54.2701 11.6916 54.0604 11.4818C53.8506 11.272 53.5833 11.1292 53.2923 11.0713C53.0014 11.0134 52.6998 11.0431 52.4257 11.1566C52.1516 11.2702 51.9173 11.4624 51.7525 11.7091C51.5877 11.9558 51.4997 12.2458 51.4997 12.5425C51.4997 12.9403 51.6577 13.3218 51.939 13.6031C52.2203 13.8844 52.6019 14.0425 52.9997 14.0425ZM57.4997 17.0425C57.7964 17.0425 58.0864 16.9545 58.3331 16.7897C58.5797 16.6248 58.772 16.3906 58.8855 16.1165C58.999 15.8424 59.0288 15.5408 58.9709 15.2498C58.913 14.9589 58.7701 14.6916 58.5604 14.4818C58.3506 14.272 58.0833 14.1292 57.7923 14.0713C57.5014 14.0134 57.1998 14.0431 56.9257 14.1566C56.6516 14.2702 56.4173 14.4624 56.2525 14.7091C56.0877 14.9558 55.9997 15.2458 55.9997 15.5425C55.9997 15.9403 56.1577 16.3218 56.439 16.6031C56.7203 16.8844 57.1019 17.0425 57.4997 17.0425ZM60.4997 21.5425C60.7964 21.5425 61.0864 21.4545 61.3331 21.2897C61.5797 21.1248 61.772 20.8906 61.8855 20.6165C61.999 20.3424 62.0288 20.0408 61.9709 19.7498C61.913 19.4589 61.7701 19.1916 61.5604 18.9818C61.3506 18.772 61.0833 18.6292 60.7923 18.5713C60.5014 18.5134 60.1998 18.5431 59.9257 18.6566C59.6516 18.7702 59.4173 18.9624 59.2525 19.2091C59.0877 19.4558 58.9997 19.7458 58.9997 20.0425C58.9997 20.4403 59.1577 20.8218 59.439 21.1031C59.7203 21.3844 60.1019 21.5425 60.4997 21.5425Z" fill="#FF8754"/>
</g>
<defs>
<clipPath id="clip0_1196_167191">
<rect width="97" height="67" fill="white"/>
</clipPath>
</defs>
</svg>
